# xmcd CD database file
#
# Track frame offsets:
#	150
#	14364
#	23814
#	38146
#	50855
#	62791
#	73561
#	84133
#	96704
#	106509
#	119568
#	134713
#	148189
#	158849
#	171854
#
# Disc length: 2476 seconds
#
# Revision: 1
# Processed by: cddbd v1.5.1PL2 Copyright (c) Steve Scherf et al.
# Submitted via: CDex 1.51
#
DISCID=d609aa0f
DTITLE=Ray Charles - The Best of Ray Charles
DYEAR=2001
DGENRE=Jazz
TTITLE0=Baby_Let Me Hold Your Hand
TTITLE1=All To Myself Alone
TTITLE2=Don´t You Cry Baby
TTITLE3=Yesterday
TTITLE4=C C Rider
TTITLE5=I Wondeer Who´s Kissing Her Now
TTITLE6=Hey Now
TTITLE7=Basin Street Blues
TTITLE8=Busted
TTITLE9=I Got A Woman
TTITLE10=Moon Over Miami
TTITLE11=Blue Hawaii
TTITLE12=The Ego Song
TTITLE13=The Snow Is Falling
TTITLE14=Kiss Me Baby
EXTD=YEAR: 2001
EXTT0=
EXTT1=
EXTT2=
EXTT3=
EXTT4=
EXTT5=
EXTT6=
EXTT7=
EXTT8=
EXTT9=
EXTT10=
EXTT11=
EXTT12=
EXTT13=
EXTT14=
PLAYORDER=
